<mxfile host="app.diagrams.net" modified="2024-06-12T01:02:37.899Z" agent="Mozilla/5.0 (Macintosh; Intel Mac OS X 10_15_7) AppleWebKit/537.36 (KHTML, like Gecko) Chrome/125.0.0.0 Safari/537.36" etag="pSDtfsPhLSzQzEB4ilnO" version="24.5.2" type="github">
  <diagram id="6a731a19-8d31-9384-78a2-239565b7b9f0" name="Page-1">
    <mxGraphModel dx="1224" dy="738" grid="1" gridSize="10" guides="1" tooltips="1" connect="1" arrows="1" fold="1" page="1" pageScale="1" pageWidth="827" pageHeight="1169" background="none" math="0" shadow="0">
      <root>
        <mxCell id="0" />
        <mxCell id="1" parent="0" />
        <mxCell id="5XrPmiacQ2J8eGIi3jUt-2283" style="rounded=0;orthogonalLoop=1;jettySize=auto;html=1;shape=link;" edge="1" parent="1" source="5XrPmiacQ2J8eGIi3jUt-2292" target="5XrPmiacQ2J8eGIi3jUt-2262">
          <mxGeometry relative="1" as="geometry">
            <mxPoint x="205.84183673469397" y="490" as="sourcePoint" />
          </mxGeometry>
        </mxCell>
        <mxCell id="5XrPmiacQ2J8eGIi3jUt-2257" value="&lt;span style=&quot;color: rgb(88, 88, 91); font-family: CiscoSans, Arial, sans-serif; font-size: 14px; font-weight: 700; text-align: left; background-color: rgb(255, 255, 255);&quot;&gt;Physical View of a Server Cluster Model Using ECMP&lt;/span&gt;" style="text;html=1;strokeColor=#d6b656;fillColor=#fff2cc;align=center;verticalAlign=middle;whiteSpace=wrap;overflow=hidden;" vertex="1" parent="1">
          <mxGeometry x="20" y="10" width="210" height="60" as="geometry" />
        </mxCell>
        <mxCell id="5XrPmiacQ2J8eGIi3jUt-2258" value="" style="shape=mxgraph.cisco.switches.layer_3_switch;sketch=0;html=1;pointerEvents=1;dashed=0;fillColor=#036897;strokeColor=#ffffff;strokeWidth=2;verticalLabelPosition=bottom;verticalAlign=top;align=center;outlineConnect=0;" vertex="1" parent="1">
          <mxGeometry x="120" y="140" width="64" height="64" as="geometry" />
        </mxCell>
        <mxCell id="5XrPmiacQ2J8eGIi3jUt-2259" value="" style="shape=mxgraph.cisco.switches.layer_3_switch;sketch=0;html=1;pointerEvents=1;dashed=0;fillColor=#036897;strokeColor=#ffffff;strokeWidth=2;verticalLabelPosition=bottom;verticalAlign=top;align=center;outlineConnect=0;" vertex="1" parent="1">
          <mxGeometry x="250" y="140" width="64" height="64" as="geometry" />
        </mxCell>
        <mxCell id="5XrPmiacQ2J8eGIi3jUt-2260" value="" style="shape=mxgraph.cisco.switches.layer_3_switch;sketch=0;html=1;pointerEvents=1;dashed=0;fillColor=#036897;strokeColor=#ffffff;strokeWidth=2;verticalLabelPosition=bottom;verticalAlign=top;align=center;outlineConnect=0;" vertex="1" parent="1">
          <mxGeometry x="440" y="140" width="64" height="64" as="geometry" />
        </mxCell>
        <mxCell id="5XrPmiacQ2J8eGIi3jUt-2261" value="" style="shape=mxgraph.cisco.switches.layer_3_switch;sketch=0;html=1;pointerEvents=1;dashed=0;fillColor=#036897;strokeColor=#ffffff;strokeWidth=2;verticalLabelPosition=bottom;verticalAlign=top;align=center;outlineConnect=0;" vertex="1" parent="1">
          <mxGeometry x="570" y="140" width="64" height="64" as="geometry" />
        </mxCell>
        <mxCell id="5XrPmiacQ2J8eGIi3jUt-2264" value="" style="shape=mxgraph.cisco.switches.layer_3_switch;sketch=0;html=1;pointerEvents=1;dashed=0;fillColor=#036897;strokeColor=#ffffff;strokeWidth=2;verticalLabelPosition=bottom;verticalAlign=top;align=center;outlineConnect=0;" vertex="1" parent="1">
          <mxGeometry x="214" y="340" width="64" height="64" as="geometry" />
        </mxCell>
        <mxCell id="5XrPmiacQ2J8eGIi3jUt-2263" value="" style="shape=mxgraph.cisco.switches.layer_3_switch;sketch=0;html=1;pointerEvents=1;dashed=0;fillColor=#036897;strokeColor=#ffffff;strokeWidth=2;verticalLabelPosition=bottom;verticalAlign=top;align=center;outlineConnect=0;" vertex="1" parent="1">
          <mxGeometry x="196" y="365" width="64" height="64" as="geometry" />
        </mxCell>
        <mxCell id="5XrPmiacQ2J8eGIi3jUt-2262" value="" style="shape=mxgraph.cisco.switches.layer_3_switch;sketch=0;html=1;pointerEvents=1;dashed=0;fillColor=#036897;strokeColor=#ffffff;strokeWidth=2;verticalLabelPosition=bottom;verticalAlign=top;align=center;outlineConnect=0;" vertex="1" parent="1">
          <mxGeometry x="180" y="390" width="64" height="64" as="geometry" />
        </mxCell>
        <mxCell id="5XrPmiacQ2J8eGIi3jUt-2274" style="edgeStyle=orthogonalEdgeStyle;rounded=0;orthogonalLoop=1;jettySize=auto;html=1;" edge="1" parent="1" source="5XrPmiacQ2J8eGIi3jUt-2266" target="5XrPmiacQ2J8eGIi3jUt-2267">
          <mxGeometry relative="1" as="geometry" />
        </mxCell>
        <mxCell id="5XrPmiacQ2J8eGIi3jUt-2266" value="" style="shape=mxgraph.cisco.switches.layer_3_switch;sketch=0;html=1;pointerEvents=1;dashed=0;fillColor=#036897;strokeColor=#ffffff;strokeWidth=2;verticalLabelPosition=bottom;verticalAlign=top;align=center;outlineConnect=0;" vertex="1" parent="1">
          <mxGeometry x="475" y="341" width="64" height="64" as="geometry" />
        </mxCell>
        <mxCell id="5XrPmiacQ2J8eGIi3jUt-2267" value="" style="shape=mxgraph.cisco.switches.layer_3_switch;sketch=0;html=1;pointerEvents=1;dashed=0;fillColor=#036897;strokeColor=#ffffff;strokeWidth=2;verticalLabelPosition=bottom;verticalAlign=top;align=center;outlineConnect=0;" vertex="1" parent="1">
          <mxGeometry x="457" y="366" width="64" height="64" as="geometry" />
        </mxCell>
        <mxCell id="5XrPmiacQ2J8eGIi3jUt-2289" style="rounded=0;orthogonalLoop=1;jettySize=auto;html=1;exitX=0.5;exitY=1;exitDx=0;exitDy=0;exitPerimeter=0;shape=link;" edge="1" parent="1" source="5XrPmiacQ2J8eGIi3jUt-2268" target="5XrPmiacQ2J8eGIi3jUt-2287">
          <mxGeometry relative="1" as="geometry" />
        </mxCell>
        <mxCell id="5XrPmiacQ2J8eGIi3jUt-2268" value="" style="shape=mxgraph.cisco.switches.layer_3_switch;sketch=0;html=1;pointerEvents=1;dashed=0;fillColor=#036897;strokeColor=#ffffff;strokeWidth=2;verticalLabelPosition=bottom;verticalAlign=top;align=center;outlineConnect=0;" vertex="1" parent="1">
          <mxGeometry x="441" y="390" width="64" height="65" as="geometry" />
        </mxCell>
        <mxCell id="5XrPmiacQ2J8eGIi3jUt-2269" style="rounded=0;orthogonalLoop=1;jettySize=auto;html=1;exitX=0.5;exitY=0;exitDx=0;exitDy=0;exitPerimeter=0;entryX=0.5;entryY=1;entryDx=0;entryDy=0;entryPerimeter=0;strokeColor=#990099;" edge="1" parent="1" source="5XrPmiacQ2J8eGIi3jUt-2262" target="5XrPmiacQ2J8eGIi3jUt-2258">
          <mxGeometry relative="1" as="geometry" />
        </mxCell>
        <mxCell id="5XrPmiacQ2J8eGIi3jUt-2270" value="" style="endArrow=classic;startArrow=classic;html=1;rounded=0;fillColor=#e1d5e7;strokeColor=#9673a6;" edge="1" parent="1" target="5XrPmiacQ2J8eGIi3jUt-2259">
          <mxGeometry width="50" height="50" relative="1" as="geometry">
            <mxPoint x="214" y="390" as="sourcePoint" />
            <mxPoint x="264" y="340" as="targetPoint" />
          </mxGeometry>
        </mxCell>
        <mxCell id="5XrPmiacQ2J8eGIi3jUt-2271" value="" style="endArrow=classic;startArrow=classic;html=1;rounded=0;entryX=0.5;entryY=1;entryDx=0;entryDy=0;entryPerimeter=0;fillColor=#e1d5e7;strokeColor=#9673a6;" edge="1" parent="1" target="5XrPmiacQ2J8eGIi3jUt-2260">
          <mxGeometry width="50" height="50" relative="1" as="geometry">
            <mxPoint x="220" y="391" as="sourcePoint" />
            <mxPoint x="278" y="205" as="targetPoint" />
          </mxGeometry>
        </mxCell>
        <mxCell id="5XrPmiacQ2J8eGIi3jUt-2272" value="" style="endArrow=classic;startArrow=classic;html=1;rounded=0;entryX=0.5;entryY=1;entryDx=0;entryDy=0;entryPerimeter=0;fillColor=#e1d5e7;strokeColor=#9673a6;" edge="1" parent="1" target="5XrPmiacQ2J8eGIi3jUt-2261">
          <mxGeometry width="50" height="50" relative="1" as="geometry">
            <mxPoint x="220" y="386" as="sourcePoint" />
            <mxPoint x="278" y="200" as="targetPoint" />
          </mxGeometry>
        </mxCell>
        <mxCell id="5XrPmiacQ2J8eGIi3jUt-2273" style="rounded=0;orthogonalLoop=1;jettySize=auto;html=1;entryX=0.5;entryY=1;entryDx=0;entryDy=0;entryPerimeter=0;strokeColor=#b85450;fillColor=#f8cecc;" edge="1" parent="1" source="5XrPmiacQ2J8eGIi3jUt-2267" target="5XrPmiacQ2J8eGIi3jUt-2258">
          <mxGeometry relative="1" as="geometry" />
        </mxCell>
        <mxCell id="5XrPmiacQ2J8eGIi3jUt-2275" style="rounded=0;orthogonalLoop=1;jettySize=auto;html=1;fillColor=#f8cecc;strokeColor=#b85450;" edge="1" parent="1">
          <mxGeometry relative="1" as="geometry">
            <mxPoint x="467" y="381" as="sourcePoint" />
            <mxPoint x="280" y="210" as="targetPoint" />
          </mxGeometry>
        </mxCell>
        <mxCell id="5XrPmiacQ2J8eGIi3jUt-2276" style="rounded=0;orthogonalLoop=1;jettySize=auto;html=1;fillColor=#f8cecc;strokeColor=#b85450;" edge="1" parent="1">
          <mxGeometry relative="1" as="geometry">
            <mxPoint x="477" y="390" as="sourcePoint" />
            <mxPoint x="470" y="210" as="targetPoint" />
          </mxGeometry>
        </mxCell>
        <mxCell id="5XrPmiacQ2J8eGIi3jUt-2277" style="rounded=0;orthogonalLoop=1;jettySize=auto;html=1;fillColor=#f8cecc;strokeColor=#b85450;" edge="1" parent="1">
          <mxGeometry relative="1" as="geometry">
            <mxPoint x="480" y="380" as="sourcePoint" />
            <mxPoint x="600" y="210" as="targetPoint" />
          </mxGeometry>
        </mxCell>
        <mxCell id="5XrPmiacQ2J8eGIi3jUt-2278" value="4-way&amp;nbsp;&lt;br&gt;ECMP(&lt;span style=&quot;color: rgb(88, 88, 91); font-family: CiscoSans, Arial, sans-serif; font-size: 14px; text-align: start; text-indent: -10px; background-color: rgb(255, 255, 255);&quot;&gt;Equal Cost Multi-Path&lt;/span&gt;)&amp;nbsp;&lt;br&gt;Core" style="text;html=1;strokeColor=#d6b656;fillColor=#fff2cc;align=center;verticalAlign=middle;whiteSpace=wrap;overflow=hidden;" vertex="1" parent="1">
          <mxGeometry x="572" y="255" width="190" height="68" as="geometry" />
        </mxCell>
        <mxCell id="5XrPmiacQ2J8eGIi3jUt-2279" value="Backend&amp;nbsp;&lt;div&gt;high speed fabric&lt;div&gt;&lt;br&gt;&lt;/div&gt;&lt;/div&gt;" style="image;aspect=fixed;html=1;points=[];align=center;fontSize=12;image=img/lib/azure2/compute/Service_Fabric_Clusters.svg;" vertex="1" parent="1">
          <mxGeometry x="347" y="100" width="67" height="64" as="geometry" />
        </mxCell>
        <mxCell id="5XrPmiacQ2J8eGIi3jUt-2299" style="rounded=0;orthogonalLoop=1;jettySize=auto;html=1;shape=link;" edge="1" parent="1" source="5XrPmiacQ2J8eGIi3jUt-2284" target="5XrPmiacQ2J8eGIi3jUt-2297">
          <mxGeometry relative="1" as="geometry" />
        </mxCell>
        <mxCell id="5XrPmiacQ2J8eGIi3jUt-2284" value="master nodes" style="sketch=0;pointerEvents=1;shadow=0;dashed=0;html=1;strokeColor=none;fillColor=#505050;labelPosition=center;verticalLabelPosition=bottom;verticalAlign=top;outlineConnect=0;align=center;shape=mxgraph.office.servers.server_farm;fillColor=#DA4026;" vertex="1" parent="1">
          <mxGeometry x="278" y="480" width="56" height="49" as="geometry" />
        </mxCell>
        <mxCell id="5XrPmiacQ2J8eGIi3jUt-2290" style="rounded=0;orthogonalLoop=1;jettySize=auto;html=1;shape=link;" edge="1" parent="1" source="5XrPmiacQ2J8eGIi3jUt-2285" target="5XrPmiacQ2J8eGIi3jUt-2268">
          <mxGeometry relative="1" as="geometry" />
        </mxCell>
        <mxCell id="5XrPmiacQ2J8eGIi3jUt-2300" style="rounded=0;orthogonalLoop=1;jettySize=auto;html=1;shape=link;" edge="1" parent="1" source="5XrPmiacQ2J8eGIi3jUt-2285" target="5XrPmiacQ2J8eGIi3jUt-2298">
          <mxGeometry relative="1" as="geometry" />
        </mxCell>
        <mxCell id="5XrPmiacQ2J8eGIi3jUt-2285" value="master nodes" style="sketch=0;pointerEvents=1;shadow=0;dashed=0;html=1;strokeColor=none;fillColor=#505050;labelPosition=center;verticalLabelPosition=bottom;verticalAlign=top;outlineConnect=0;align=center;shape=mxgraph.office.servers.server_farm;fillColor=#DA4026;" vertex="1" parent="1">
          <mxGeometry x="401" y="480" width="56" height="54.5" as="geometry" />
        </mxCell>
        <mxCell id="5XrPmiacQ2J8eGIi3jUt-2286" value="computer nodes" style="sketch=0;pointerEvents=1;shadow=0;dashed=0;html=1;strokeColor=none;labelPosition=center;verticalLabelPosition=bottom;verticalAlign=top;outlineConnect=0;align=center;shape=mxgraph.office.servers.physical_host_farm;fillColor=#2072B8;" vertex="1" parent="1">
          <mxGeometry x="504" y="530" width="60" height="50" as="geometry" />
        </mxCell>
        <mxCell id="5XrPmiacQ2J8eGIi3jUt-2287" value="" style="sketch=0;pointerEvents=1;shadow=0;dashed=0;html=1;strokeColor=none;labelPosition=center;verticalLabelPosition=bottom;verticalAlign=top;outlineConnect=0;align=center;shape=mxgraph.office.servers.physical_host_farm;fillColor=#2072B8;" vertex="1" parent="1">
          <mxGeometry x="536" y="480" width="60" height="50" as="geometry" />
        </mxCell>
        <mxCell id="5XrPmiacQ2J8eGIi3jUt-2288" value="" style="sketch=0;pointerEvents=1;shadow=0;dashed=0;html=1;strokeColor=none;labelPosition=center;verticalLabelPosition=bottom;verticalAlign=top;outlineConnect=0;align=center;shape=mxgraph.office.servers.physical_host_farm;fillColor=#2072B8;" vertex="1" parent="1">
          <mxGeometry x="564" y="530" width="60" height="50" as="geometry" />
        </mxCell>
        <mxCell id="5XrPmiacQ2J8eGIi3jUt-2291" style="rounded=0;orthogonalLoop=1;jettySize=auto;html=1;entryX=0.95;entryY=0.94;entryDx=0;entryDy=0;entryPerimeter=0;shape=link;" edge="1" parent="1" source="5XrPmiacQ2J8eGIi3jUt-2284" target="5XrPmiacQ2J8eGIi3jUt-2262">
          <mxGeometry relative="1" as="geometry" />
        </mxCell>
        <mxCell id="5XrPmiacQ2J8eGIi3jUt-2292" value="" style="sketch=0;pointerEvents=1;shadow=0;dashed=0;html=1;strokeColor=none;fillColor=#505050;labelPosition=center;verticalLabelPosition=bottom;verticalAlign=top;outlineConnect=0;align=center;shape=mxgraph.office.servers.server_farm;fillColor=#7FBA42;" vertex="1" parent="1">
          <mxGeometry x="128" y="480" width="56" height="49" as="geometry" />
        </mxCell>
        <mxCell id="5XrPmiacQ2J8eGIi3jUt-2293" value="computer nodes" style="sketch=0;pointerEvents=1;shadow=0;dashed=0;html=1;strokeColor=none;fillColor=#505050;labelPosition=center;verticalLabelPosition=bottom;verticalAlign=top;outlineConnect=0;align=center;shape=mxgraph.office.servers.server_farm;fillColor=#7FBA42;" vertex="1" parent="1">
          <mxGeometry x="90" y="529" width="56" height="49" as="geometry" />
        </mxCell>
        <mxCell id="5XrPmiacQ2J8eGIi3jUt-2294" value="" style="sketch=0;pointerEvents=1;shadow=0;dashed=0;html=1;strokeColor=none;fillColor=#505050;labelPosition=center;verticalLabelPosition=bottom;verticalAlign=top;outlineConnect=0;align=center;shape=mxgraph.office.servers.server_farm;fillColor=#7FBA42;" vertex="1" parent="1">
          <mxGeometry x="146" y="529" width="56" height="49" as="geometry" />
        </mxCell>
        <mxCell id="5XrPmiacQ2J8eGIi3jUt-2297" value="" style="shape=mxgraph.cisco.switches.workgroup_switch;sketch=0;html=1;pointerEvents=1;dashed=0;fillColor=#036897;strokeColor=#ffffff;strokeWidth=2;verticalLabelPosition=bottom;verticalAlign=top;align=center;outlineConnect=0;" vertex="1" parent="1">
          <mxGeometry x="202" y="640" width="101" height="50" as="geometry" />
        </mxCell>
        <mxCell id="5XrPmiacQ2J8eGIi3jUt-2298" value="" style="shape=mxgraph.cisco.switches.workgroup_switch;sketch=0;html=1;pointerEvents=1;dashed=0;fillColor=#036897;strokeColor=#ffffff;strokeWidth=2;verticalLabelPosition=bottom;verticalAlign=top;align=center;outlineConnect=0;" vertex="1" parent="1">
          <mxGeometry x="435" y="640" width="101" height="50" as="geometry" />
        </mxCell>
        <mxCell id="5XrPmiacQ2J8eGIi3jUt-2301" value="Front end&lt;div&gt;&lt;div&gt;&lt;br&gt;&lt;/div&gt;&lt;/div&gt;" style="image;sketch=0;aspect=fixed;html=1;points=[];align=center;fontSize=12;image=img/lib/mscae/Front_Doors.svg;" vertex="1" parent="1">
          <mxGeometry x="347" y="646" width="50" height="44" as="geometry" />
        </mxCell>
      </root>
    </mxGraphModel>
  </diagram>
</mxfile>
